<svg xmlns="http://www.w3.org/2000/svg" width="196" height="86" viewBox="0 0 196 86"><g transform="translate(0 0)"><g fill="none" class="nc-icon-wrapper"><circle cx="43" cy="43" r="43" fill="#fff"></circle><path d="M46.652 55.748c0-2.056.511-4.03 1.473-5.79a54.137 54.137 0 0 0-2.782-1.472.362.362 0 0 1-.205-.338v-8.08a3.776 3.776 0 0 0 1.688-3.141v-8.378A7.55 7.55 0 0 0 39.276 21h-1.8a7.55 7.55 0 0 0-7.549 7.55v8.377c0 1.31.675 2.465 1.688 3.14v8.081a.38.38 0 0 1-.205.338c-1.155.562-6.75 3.386-11.937 7.651A4.04 4.04 0 0 0 18 59.277v5.739h32.979a10.52 10.52 0 0 1-.788-.726 12.01 12.01 0 0 1-3.54-8.542z" fill="#3077C6"></path><path d="M58.732 46.48c-5.114 0-9.267 4.154-9.267 9.268 0 5.115 4.153 9.268 9.267 9.268 5.115 0 9.268-4.153 9.268-9.268a9.266 9.266 0 0 0-9.268-9.267zM64.154 57.1h-4.071v4.07h-2.7V57.1H53.31v-2.701h4.071v-4.071h2.7v4.071h4.072v2.7z" fill="#3077C6"></path></g></g><g transform="translate(86 0)"><g fill="none" class="nc-icon-wrapper"><path d="M26 1.486L24.514 0 13 11.514 1.486 0 0 1.486 11.514 13 0 24.514 1.486 26 13 14.486 24.514 26 26 24.514 14.486 13 26 1.486z" fill="#bfbfbf"></path></g></g><g transform="translate(112 0)"><g fill="none" class="nc-icon-wrapper"><g filter="url(#filter0_d_1_157)"><circle cx="24" cy="20.015" r="20" fill="#F3F3F4"></circle><path d="M15.177 18l8.211 6.159a2 2 0 0 0 2.4 0L34 18" stroke="#383838" stroke-width="2"></path></g><defs><filter id="filter0_d_1_157" x="0" y=".015" width="48" height="48" filterUnits="userSpaceOnUse" color-interpolation-filters="sRGB"><feFlood flood-opacity="0" result="BackgroundImageFix"></feFlood><feColorMatrix in="SourceAlpha" type="matrix" values="0 0 0 0 0 0 0 0 0 0 0 0 0 0 0 0 0 0 127 0" result="hardAlpha"></feColorMatrix><feOffset dy="4"></feOffset><feGaussianBlur stdDeviation="2"></feGaussianBlur><feColorMatrix type="matrix" values="0 0 0 0 0 0 0 0 0 0 0 0 0 0 0 0 0 0 0.25 0"></feColorMatrix><feBlend mode="normal" in2="BackgroundImageFix" result="effect1_dropShadow_1_157"></feBlend><feBlend mode="normal" in="SourceGraphic" in2="effect1_dropShadow_1_157" result="shape"></feBlend></filter></defs></g></g><g transform="translate(160 0)"><g fill="none" class="nc-icon-wrapper"><g filter="url(#filter0_d_702_64)"><circle cx="18" cy="14" r="14" fill="#F3F3F4"></circle><path d="M16.059 20.177l4.041-5.389a2 2 0 0 0 0-2.4L16.059 7" stroke="#383838" stroke-width="2"></path></g><defs><filter id="filter0_d_702_64" x="0" y="0" width="36" height="36" filterUnits="userSpaceOnUse" color-interpolation-filters="sRGB"><feFlood flood-opacity="0" result="BackgroundImageFix"></feFlood><feColorMatrix in="SourceAlpha" type="matrix" values="0 0 0 0 0 0 0 0 0 0 0 0 0 0 0 0 0 0 127 0" result="hardAlpha"></feColorMatrix><feOffset dy="4"></feOffset><feGaussianBlur stdDeviation="2"></feGaussianBlur><feColorMatrix type="matrix" values="0 0 0 0 0 0 0 0 0 0 0 0 0 0 0 0 0 0 0.25 0"></feColorMatrix><feBlend mode="normal" in2="BackgroundImageFix" result="effect1_dropShadow_702_64"></feBlend><feBlend mode="normal" in="SourceGraphic" in2="effect1_dropShadow_702_64" result="shape"></feBlend></filter></defs></g></g></svg>