<svg width="117" height="19" viewBox="0 0 117 19" fill="none" xmlns="http://www.w3.org/2000/svg">
<path d="M11.6914 13.5469H4.54297L2.9375 18H0.617188L7.13281 0.9375H9.10156L15.6289 18H13.3203L11.6914 13.5469ZM5.22266 11.6953H11.0234L8.11719 3.71484L5.22266 11.6953ZM20.3164 2.25V5.32031H22.6836V6.99609H20.3164V14.8594C20.3164 15.3672 20.4219 15.75 20.6328 16.0078C20.8438 16.2578 21.2031 16.3828 21.7109 16.3828C21.9609 16.3828 22.3047 16.3359 22.7422 16.2422V18C22.1719 18.1562 21.6172 18.2344 21.0781 18.2344C20.1094 18.2344 19.3789 17.9414 18.8867 17.3555C18.3945 16.7695 18.1484 15.9375 18.1484 14.8594V6.99609H15.8398V5.32031H18.1484V2.25H20.3164ZM28.168 2.25V5.32031H30.5352V6.99609H28.168V14.8594C28.168 15.3672 28.2734 15.75 28.4844 16.0078C28.6953 16.2578 29.0547 16.3828 29.5625 16.3828C29.8125 16.3828 30.1562 16.3359 30.5938 16.2422V18C30.0234 18.1562 29.4688 18.2344 28.9297 18.2344C27.9609 18.2344 27.2305 17.9414 26.7383 17.3555C26.2461 16.7695 26 15.9375 26 14.8594V6.99609H23.6914V5.32031H26V2.25H28.168ZM39.207 7.26562C38.8789 7.21094 38.5234 7.18359 38.1406 7.18359C36.7188 7.18359 35.7539 7.78906 35.2461 9V18H33.0781V5.32031H35.1875L35.2227 6.78516C35.9336 5.65234 36.9414 5.08594 38.2461 5.08594C38.668 5.08594 38.9883 5.14062 39.207 5.25V7.26562ZM48.5703 18C48.4453 17.75 48.3438 17.3047 48.2656 16.6641C47.2578 17.7109 46.0547 18.2344 44.6562 18.2344C43.4062 18.2344 42.3789 17.8828 41.5742 17.1797C40.7773 16.4688 40.3789 15.5703 40.3789 14.4844C40.3789 13.1641 40.8789 12.1406 41.8789 11.4141C42.8867 10.6797 44.3008 10.3125 46.1211 10.3125H48.2305V9.31641C48.2305 8.55859 48.0039 7.95703 47.5508 7.51172C47.0977 7.05859 46.4297 6.83203 45.5469 6.83203C44.7734 6.83203 44.125 7.02734 43.6016 7.41797C43.0781 7.80859 42.8164 8.28125 42.8164 8.83594H40.6367C40.6367 8.20312 40.8594 7.59375 41.3047 7.00781C41.7578 6.41406 42.3672 5.94531 43.1328 5.60156C43.9062 5.25781 44.7539 5.08594 45.6758 5.08594C47.1367 5.08594 48.2812 5.45312 49.1094 6.1875C49.9375 6.91406 50.3672 7.91797 50.3984 9.19922V15.0352C50.3984 16.1992 50.5469 17.125 50.8438 17.8125V18H48.5703ZM44.9727 16.3477C45.6523 16.3477 46.2969 16.1719 46.9062 15.8203C47.5156 15.4688 47.957 15.0117 48.2305 14.4492V11.8477H46.5312C43.875 11.8477 42.5469 12.625 42.5469 14.1797C42.5469 14.8594 42.7734 15.3906 43.2266 15.7734C43.6797 16.1562 44.2617 16.3477 44.9727 16.3477ZM58.8828 16.4648C59.6562 16.4648 60.332 16.2305 60.9102 15.7617C61.4883 15.293 61.8086 14.707 61.8711 14.0039H63.9219C63.8828 14.7305 63.6328 15.4219 63.1719 16.0781C62.7109 16.7344 62.0938 17.2578 61.3203 17.6484C60.5547 18.0391 59.7422 18.2344 58.8828 18.2344C57.1562 18.2344 55.7812 17.6602 54.7578 16.5117C53.7422 15.3555 53.2344 13.7773 53.2344 11.7773V11.4141C53.2344 10.1797 53.4609 9.08203 53.9141 8.12109C54.3672 7.16016 55.0156 6.41406 55.8594 5.88281C56.7109 5.35156 57.7148 5.08594 58.8711 5.08594C60.293 5.08594 61.4727 5.51172 62.4102 6.36328C63.3555 7.21484 63.8594 8.32031 63.9219 9.67969H61.8711C61.8086 8.85938 61.4961 8.1875 60.9336 7.66406C60.3789 7.13281 59.6914 6.86719 58.8711 6.86719C57.7695 6.86719 56.9141 7.26562 56.3047 8.0625C55.7031 8.85156 55.4023 9.99609 55.4023 11.4961V11.9062C55.4023 13.3672 55.7031 14.4922 56.3047 15.2812C56.9062 16.0703 57.7656 16.4648 58.8828 16.4648ZM69.3008 2.25V5.32031H71.668V6.99609H69.3008V14.8594C69.3008 15.3672 69.4062 15.75 69.6172 16.0078C69.8281 16.2578 70.1875 16.3828 70.6953 16.3828C70.9453 16.3828 71.2891 16.3359 71.7266 16.2422V18C71.1562 18.1562 70.6016 18.2344 70.0625 18.2344C69.0938 18.2344 68.3633 17.9414 67.8711 17.3555C67.3789 16.7695 67.1328 15.9375 67.1328 14.8594V6.99609H64.8242V5.32031H67.1328V2.25H69.3008ZM76.5664 18H74.3984V5.32031H76.5664V18ZM74.2227 1.95703C74.2227 1.60547 74.3281 1.30859 74.5391 1.06641C74.7578 0.824219 75.0781 0.703125 75.5 0.703125C75.9219 0.703125 76.2422 0.824219 76.4609 1.06641C76.6797 1.30859 76.7891 1.60547 76.7891 1.95703C76.7891 2.30859 76.6797 2.60156 76.4609 2.83594C76.2422 3.07031 75.9219 3.1875 75.5 3.1875C75.0781 3.1875 74.7578 3.07031 74.5391 2.83594C74.3281 2.60156 74.2227 2.30859 74.2227 1.95703ZM79.4727 11.543C79.4727 10.3008 79.7148 9.18359 80.1992 8.19141C80.6914 7.19922 81.3711 6.43359 82.2383 5.89453C83.1133 5.35547 84.1094 5.08594 85.2266 5.08594C86.9531 5.08594 88.3477 5.68359 89.4102 6.87891C90.4805 8.07422 91.0156 9.66406 91.0156 11.6484V11.8008C91.0156 13.0352 90.7773 14.1445 90.3008 15.1289C89.832 16.1055 89.1562 16.8672 88.2734 17.4141C87.3984 17.9609 86.3906 18.2344 85.25 18.2344C83.5312 18.2344 82.1367 17.6367 81.0664 16.4414C80.0039 15.2461 79.4727 13.6641 79.4727 11.6953V11.543ZM81.6523 11.8008C81.6523 13.207 81.9766 14.3359 82.625 15.1875C83.2812 16.0391 84.1562 16.4648 85.25 16.4648C86.3516 16.4648 87.2266 16.0352 87.875 15.1758C88.5234 14.3086 88.8477 13.0977 88.8477 11.543C88.8477 10.1523 88.5156 9.02734 87.8516 8.16797C87.1953 7.30078 86.3203 6.86719 85.2266 6.86719C84.1562 6.86719 83.293 7.29297 82.6367 8.14453C81.9805 8.99609 81.6523 10.2148 81.6523 11.8008ZM95.7852 5.32031L95.8555 6.91406C96.8242 5.69531 98.0898 5.08594 99.6523 5.08594C102.332 5.08594 103.684 6.59766 103.707 9.62109V18H101.539V9.60938C101.531 8.69531 101.32 8.01953 100.906 7.58203C100.5 7.14453 99.8633 6.92578 98.9961 6.92578C98.293 6.92578 97.6758 7.11328 97.1445 7.48828C96.6133 7.86328 96.1992 8.35547 95.9023 8.96484V18H93.7344V5.32031H95.7852ZM114.359 14.6367C114.359 14.0508 114.137 13.5977 113.691 13.2773C113.254 12.9492 112.484 12.668 111.383 12.4336C110.289 12.1992 109.418 11.918 108.77 11.5898C108.129 11.2617 107.652 10.8711 107.34 10.418C107.035 9.96484 106.883 9.42578 106.883 8.80078C106.883 7.76172 107.32 6.88281 108.195 6.16406C109.078 5.44531 110.203 5.08594 111.57 5.08594C113.008 5.08594 114.172 5.45703 115.062 6.19922C115.961 6.94141 116.41 7.89062 116.41 9.04688H114.23C114.23 8.45312 113.977 7.94141 113.469 7.51172C112.969 7.08203 112.336 6.86719 111.57 6.86719C110.781 6.86719 110.164 7.03906 109.719 7.38281C109.273 7.72656 109.051 8.17578 109.051 8.73047C109.051 9.25391 109.258 9.64844 109.672 9.91406C110.086 10.1797 110.832 10.4336 111.91 10.6758C112.996 10.918 113.875 11.207 114.547 11.543C115.219 11.8789 115.715 12.2852 116.035 12.7617C116.363 13.2305 116.527 13.8047 116.527 14.4844C116.527 15.6172 116.074 16.5273 115.168 17.2148C114.262 17.8945 113.086 18.2344 111.641 18.2344C110.625 18.2344 109.727 18.0547 108.945 17.6953C108.164 17.3359 107.551 16.8359 107.105 16.1953C106.668 15.5469 106.449 14.8477 106.449 14.0977H108.617C108.656 14.8242 108.945 15.4023 109.484 15.832C110.031 16.2539 110.75 16.4648 111.641 16.4648C112.461 16.4648 113.117 16.3008 113.609 15.9727C114.109 15.6367 114.359 15.1914 114.359 14.6367Z" fill="white"/>
</svg>
