<svg width="57" height="24" viewBox="0 0 57 24" fill="none" xmlns="http://www.w3.org/2000/svg">
<path d="M6.15234 10.3945C4.22266 9.83984 2.81641 9.16016 1.93359 8.35547C1.05859 7.54297 0.621094 6.54297 0.621094 5.35547C0.621094 4.01172 1.15625 2.90234 2.22656 2.02734C3.30469 1.14453 4.70312 0.703125 6.42188 0.703125C7.59375 0.703125 8.63672 0.929687 9.55078 1.38281C10.4727 1.83594 11.1836 2.46094 11.6836 3.25781C12.1914 4.05469 12.4453 4.92578 12.4453 5.87109H10.1836C10.1836 4.83984 9.85547 4.03125 9.19922 3.44531C8.54297 2.85156 7.61719 2.55469 6.42188 2.55469C5.3125 2.55469 4.44531 2.80078 3.82031 3.29297C3.20312 3.77734 2.89453 4.45312 2.89453 5.32031C2.89453 6.01562 3.1875 6.60547 3.77344 7.08984C4.36719 7.56641 5.37109 8.00391 6.78516 8.40234C8.20703 8.80078 9.31641 9.24219 10.1133 9.72656C10.918 10.2031 11.5117 10.7617 11.8945 11.4023C12.2852 12.043 12.4805 12.7969 12.4805 13.6641C12.4805 15.0469 11.9414 16.1562 10.8633 16.9922C9.78516 17.8203 8.34375 18.2344 6.53906 18.2344C5.36719 18.2344 4.27344 18.0117 3.25781 17.5664C2.24219 17.1133 1.45703 16.4961 0.902344 15.7148C0.355469 14.9336 0.0820312 14.0469 0.0820312 13.0547H2.34375C2.34375 14.0859 2.72266 14.9023 3.48047 15.5039C4.24609 16.0977 5.26562 16.3945 6.53906 16.3945C7.72656 16.3945 8.63672 16.1523 9.26953 15.668C9.90234 15.1836 10.2188 14.5234 10.2188 13.6875C10.2188 12.8516 9.92578 12.207 9.33984 11.7539C8.75391 11.293 7.69141 10.8398 6.15234 10.3945ZM17.9766 2.25V5.32031H20.3438V6.99609H17.9766V14.8594C17.9766 15.3672 18.082 15.75 18.293 16.0078C18.5039 16.2578 18.8633 16.3828 19.3711 16.3828C19.6211 16.3828 19.9648 16.3359 20.4023 16.2422V18C19.832 18.1562 19.2773 18.2344 18.7383 18.2344C17.7695 18.2344 17.0391 17.9414 16.5469 17.3555C16.0547 16.7695 15.8086 15.9375 15.8086 14.8594V6.99609H13.5V5.32031H15.8086V2.25H17.9766ZM30.7148 18C30.5898 17.75 30.4883 17.3047 30.4102 16.6641C29.4023 17.7109 28.1992 18.2344 26.8008 18.2344C25.5508 18.2344 24.5234 17.8828 23.7188 17.1797C22.9219 16.4688 22.5234 15.5703 22.5234 14.4844C22.5234 13.1641 23.0234 12.1406 24.0234 11.4141C25.0312 10.6797 26.4453 10.3125 28.2656 10.3125H30.375V9.31641C30.375 8.55859 30.1484 7.95703 29.6953 7.51172C29.2422 7.05859 28.5742 6.83203 27.6914 6.83203C26.918 6.83203 26.2695 7.02734 25.7461 7.41797C25.2227 7.80859 24.9609 8.28125 24.9609 8.83594H22.7812C22.7812 8.20312 23.0039 7.59375 23.4492 7.00781C23.9023 6.41406 24.5117 5.94531 25.2773 5.60156C26.0508 5.25781 26.8984 5.08594 27.8203 5.08594C29.2812 5.08594 30.4258 5.45312 31.2539 6.1875C32.082 6.91406 32.5117 7.91797 32.543 9.19922V15.0352C32.543 16.1992 32.6914 17.125 32.9883 17.8125V18H30.7148ZM27.1172 16.3477C27.7969 16.3477 28.4414 16.1719 29.0508 15.8203C29.6602 15.4688 30.1016 15.0117 30.375 14.4492V11.8477H28.6758C26.0195 11.8477 24.6914 12.625 24.6914 14.1797C24.6914 14.8594 24.918 15.3906 25.3711 15.7734C25.8242 16.1562 26.4062 16.3477 27.1172 16.3477ZM39.9023 14.8242L42.8555 5.32031H45.1758L40.0781 19.957C39.2891 22.0664 38.0352 23.1211 36.3164 23.1211L35.9062 23.0859L35.0977 22.9336V21.1758L35.6836 21.2227C36.418 21.2227 36.9883 21.0742 37.3945 20.7773C37.8086 20.4805 38.1484 19.9375 38.4141 19.1484L38.8945 17.8594L34.3711 5.32031H36.7383L39.9023 14.8242ZM54.5039 14.6367C54.5039 14.0508 54.2812 13.5977 53.8359 13.2773C53.3984 12.9492 52.6289 12.668 51.5273 12.4336C50.4336 12.1992 49.5625 11.918 48.9141 11.5898C48.2734 11.2617 47.7969 10.8711 47.4844 10.418C47.1797 9.96484 47.0273 9.42578 47.0273 8.80078C47.0273 7.76172 47.4648 6.88281 48.3398 6.16406C49.2227 5.44531 50.3477 5.08594 51.7148 5.08594C53.1523 5.08594 54.3164 5.45703 55.207 6.19922C56.1055 6.94141 56.5547 7.89062 56.5547 9.04688H54.375C54.375 8.45312 54.1211 7.94141 53.6133 7.51172C53.1133 7.08203 52.4805 6.86719 51.7148 6.86719C50.9258 6.86719 50.3086 7.03906 49.8633 7.38281C49.418 7.72656 49.1953 8.17578 49.1953 8.73047C49.1953 9.25391 49.4023 9.64844 49.8164 9.91406C50.2305 10.1797 50.9766 10.4336 52.0547 10.6758C53.1406 10.918 54.0195 11.207 54.6914 11.543C55.3633 11.8789 55.8594 12.2852 56.1797 12.7617C56.5078 13.2305 56.6719 13.8047 56.6719 14.4844C56.6719 15.6172 56.2188 16.5273 55.3125 17.2148C54.4062 17.8945 53.2305 18.2344 51.7852 18.2344C50.7695 18.2344 49.8711 18.0547 49.0898 17.6953C48.3086 17.3359 47.6953 16.8359 47.25 16.1953C46.8125 15.5469 46.5938 14.8477 46.5938 14.0977H48.7617C48.8008 14.8242 49.0898 15.4023 49.6289 15.832C50.1758 16.2539 50.8945 16.4648 51.7852 16.4648C52.6055 16.4648 53.2617 16.3008 53.7539 15.9727C54.2539 15.6367 54.5039 15.1914 54.5039 14.6367Z" fill="white"/>
</svg>
