<svg xmlns="http://www.w3.org/2000/svg" width="195" height="54" viewBox="0 0 195 54"><g transform="translate(0 0)"><g class="nc-icon-wrapper"><g id="surface1"><path d="M0 8h16v4.965a.278.278 0 0 1-.277.277H.277A.278.278 0 0 1 0 12.965zm0 0" stroke="none" fill-rule="nonzero" fill="#FFE15A" fill-opacity="1"></path><path d="M16 8H0V3.035c0-.152.125-.277.277-.277h15.446c.152 0 .277.125.277.277zm0 0" stroke="none" fill-rule="nonzero" fill="#4173CD" fill-opacity="1"></path></g></g></g><g transform="translate(16 0)"><g class="nc-icon-wrapper"><g id="surface1"><path d="M0 2.668h16v10.664H0zm0 0" stroke="none" fill-rule="nonzero" fill="#D80027" fill-opacity="1"></path><path d="M0 2.668h16v3.555H0zm0 0" stroke="none" fill-rule="nonzero" fill="#000" fill-opacity="1"></path><path d="M0 9.777h16v3.555H0zm0 0" stroke="none" fill-rule="nonzero" fill="#FFDA44" fill-opacity="1"></path></g></g></g><g transform="translate(32 0)"><g class="nc-icon-wrapper"><g id="surface1"><path d="M15.723 13.242H.277A.278.278 0 0 1 0 12.965v-9.93c0-.152.125-.277.277-.277h15.446c.152 0 .277.125.277.277v9.93a.278.278 0 0 1-.277.277zm0 0" stroke="none" fill-rule="nonzero" fill="#F5F5F5" fill-opacity="1"></path><path d="M16 3.566H0v-.53c0-.153.125-.278.277-.278h15.446c.152 0 .277.125.277.277zm0 0" stroke="none" fill-rule="nonzero" fill="#FF4B55" fill-opacity="1"></path><path d="M0 5.984h16v.805H0zm0 0" stroke="none" fill-rule="nonzero" fill="#FF4B55" fill-opacity="1"></path><path d="M0 4.371h16v.805H0zm0 0" stroke="none" fill-rule="nonzero" fill="#FF4B55" fill-opacity="1"></path><path d="M16 8.402H.277A.275.275 0 0 1 0 8.13v-.531h16zm0 0" stroke="none" fill-rule="nonzero" fill="#FF4B55" fill-opacity="1"></path><path d="M0 10.824h16v.805H0zm0 0" stroke="none" fill-rule="nonzero" fill="#FF4B55" fill-opacity="1"></path><path d="M15.723 13.242H.277A.278.278 0 0 1 0 12.965v-.531h16v.53a.278.278 0 0 1-.277.278zm0 0" stroke="none" fill-rule="nonzero" fill="#FF4B55" fill-opacity="1"></path><path d="M0 9.21h16v.806H0zm0 0" stroke="none" fill-rule="nonzero" fill="#FF4B55" fill-opacity="1"></path><path d="M7.172 2.758H.277A.278.278 0 0 0 0 3.035V8.13c0 .152.125.273.277.273h6.895a.275.275 0 0 0 .277-.273V3.035a.278.278 0 0 0-.277-.277zm0 0" stroke="none" fill-rule="nonzero" fill="#41479B" fill-opacity="1"></path><path d="M.773 3.39l.063.184.191.004c.028 0 .036.031.016.047l-.152.113.054.184c.008.023-.02.043-.039.027L.75 3.84l-.156.11c-.02.016-.047-.004-.04-.027l.055-.184-.152-.113c-.02-.016-.012-.047.016-.047l.191-.004.063-.183a.024.024 0 0 1 .046 0zm0 0" stroke="none" fill-rule="nonzero" fill="#F5F5F5" fill-opacity="1"></path><path d="M.773 4.352l.063.18.191.003c.028 0 .036.031.016.047l-.152.113.054.184c.008.023-.02.043-.039.031L.75 4.797l-.156.113c-.02.012-.047-.008-.04-.031l.055-.184-.152-.113c-.02-.016-.012-.047.016-.047l.191-.004.063-.18c.007-.027.039-.027.046 0zm0 0" stroke="none" fill-rule="nonzero" fill="#F5F5F5" fill-opacity="1"></path><path d="M.773 5.309l.063.183h.191c.028 0 .036.031.016.047l-.152.113.054.188c.008.023-.02.043-.039.027L.75 5.754l-.156.113c-.02.016-.047-.004-.04-.027l.055-.188-.152-.113c-.02-.016-.012-.047.016-.047h.191l.063-.183a.024.024 0 0 1 .046 0zm0 0" stroke="none" fill-rule="nonzero" fill="#F5F5F5" fill-opacity="1"></path><path d="M.773 6.266l.063.183h.191c.028 0 .036.031.016.047l-.152.117.054.184c.008.023-.02.043-.039.027L.75 6.711l-.156.113c-.02.016-.047-.004-.04-.027l.055-.184-.152-.117C.437 6.48.445 6.45.473 6.45h.191l.063-.183a.024.024 0 0 1 .046 0zm0 0" stroke="none" fill-rule="nonzero" fill="#F5F5F5" fill-opacity="1"></path><path d="M.773 7.223l.063.183h.191c.028.004.036.035.016.051l-.152.113.054.184c.008.023-.02.043-.039.027l-.156-.11-.156.11c-.02.016-.047-.004-.04-.027L.61 7.57l-.152-.113c-.02-.016-.012-.047.016-.047l.191-.004.063-.183a.024.024 0 0 1 .046 0zm0 0" stroke="none" fill-rule="nonzero" fill="#F5F5F5" fill-opacity="1"></path><path d="M1.52 3.863l.058.18.195.004c.024 0 .036.031.016.047l-.156.113.058.184c.008.023-.02.043-.039.03l-.16-.112-.156.113c-.02.012-.047-.008-.04-.031l.06-.184-.157-.113c-.02-.016-.008-.047.016-.047l.191-.004.063-.18c.008-.027.043-.027.05 0zm0 0" stroke="none" fill-rule="nonzero" fill="#F5F5F5" fill-opacity="1"></path><path d="M1.52 4.82l.058.184h.195c.024 0 .036.031.016.047l-.156.113.058.188c.008.023-.02.043-.039.027l-.16-.113-.156.113c-.02.016-.047-.004-.04-.027l.06-.188-.157-.113c-.02-.016-.008-.047.016-.047h.191l.063-.184c.008-.023.043-.023.05 0zm0 0" stroke="none" fill-rule="nonzero" fill="#F5F5F5" fill-opacity="1"></path><path d="M1.52 5.777l.058.184h.195c.024 0 .036.031.016.047l-.156.117.058.184c.008.023-.02.043-.039.027l-.16-.113-.156.113c-.02.016-.047-.004-.04-.027l.06-.184-.157-.117c-.02-.016-.008-.047.016-.047h.191l.063-.184c.008-.023.043-.023.05 0zm0 0" stroke="none" fill-rule="nonzero" fill="#F5F5F5" fill-opacity="1"></path><path d="M1.52 6.734l.058.184h.195c.024.004.036.035.016.05l-.156.114.058.184c.008.023-.02.043-.039.027l-.16-.11-.156.11c-.02.016-.047-.004-.04-.027l.06-.184-.157-.113c-.02-.016-.008-.047.016-.051h.191l.063-.184c.008-.023.043-.023.05 0zm0 0" stroke="none" fill-rule="nonzero" fill="#F5F5F5" fill-opacity="1"></path><path d="M2.262 3.39l.062.184.192.004c.023 0 .035.031.015.047l-.156.113.059.184c.007.023-.02.043-.04.027l-.156-.11-.16.11c-.02.016-.047-.004-.039-.027l.059-.184-.157-.113c-.02-.016-.007-.047.016-.047l.195-.004.059-.183c.008-.024.043-.024.05 0zm0 0" stroke="none" fill-rule="nonzero" fill="#F5F5F5" fill-opacity="1"></path><path d="M2.262 4.352l.062.18.192.003c.023 0 .035.031.015.047l-.156.113.059.184c.007.023-.02.043-.04.031l-.156-.113-.16.113c-.02.012-.047-.008-.039-.031l.059-.184-.157-.113c-.02-.016-.007-.047.016-.047l.195-.004.059-.18c.008-.027.043-.027.05 0zm0 0" stroke="none" fill-rule="nonzero" fill="#F5F5F5" fill-opacity="1"></path><path d="M2.262 5.309l.062.183h.192c.023 0 .035.031.015.047l-.156.113.059.188c.007.023-.02.043-.04.027l-.156-.113-.16.113c-.02.016-.047-.004-.039-.027l.059-.188-.157-.113c-.02-.016-.007-.047.016-.047h.195l.059-.183c.008-.024.043-.024.05 0zm0 0" stroke="none" fill-rule="nonzero" fill="#F5F5F5" fill-opacity="1"></path><path d="M2.262 6.266l.062.183h.192c.023 0 .035.031.015.047l-.156.117.059.184c.007.023-.02.043-.04.027l-.156-.113-.16.113c-.02.016-.047-.004-.039-.027l.059-.184-.157-.117c-.02-.016-.007-.047.016-.047h.195l.059-.183c.008-.024.043-.024.05 0zm0 0" stroke="none" fill-rule="nonzero" fill="#F5F5F5" fill-opacity="1"></path><path d="M2.262 7.223l.062.183h.192c.023.004.035.035.015.051l-.156.113.059.184c.007.023-.02.043-.04.027l-.156-.11-.16.11c-.02.016-.047-.004-.039-.027l.059-.184-.157-.113c-.02-.016-.007-.047.016-.05h.195l.059-.184c.008-.024.043-.024.05 0zm0 0" stroke="none" fill-rule="nonzero" fill="#F5F5F5" fill-opacity="1"></path><path d="M3.004 3.863l.062.18.192.004c.027 0 .035.031.015.047l-.152.113.055.184c.008.023-.02.043-.04.03L2.98 4.31l-.156.113c-.02.012-.047-.008-.039-.031l.059-.184-.156-.113c-.02-.016-.012-.047.015-.047l.192-.004.062-.18c.008-.027.04-.027.047 0zm0 0" stroke="none" fill-rule="nonzero" fill="#F5F5F5" fill-opacity="1"></path><path d="M3.004 4.82l.062.184h.192c.027 0 .035.031.015.047l-.152.113.055.188c.008.023-.02.043-.04.027l-.156-.113-.156.113c-.02.016-.047-.004-.039-.027l.059-.188-.156-.113c-.02-.016-.012-.047.015-.047h.192l.062-.184a.024.024 0 0 1 .047 0zm0 0" stroke="none" fill-rule="nonzero" fill="#F5F5F5" fill-opacity="1"></path><path d="M3.004 5.777l.062.184h.192c.027 0 .035.031.015.047l-.152.117.055.184c.008.023-.02.043-.04.027l-.156-.113-.156.113c-.02.016-.047-.004-.039-.027l.059-.184-.156-.117c-.02-.016-.012-.047.015-.047h.192l.062-.184a.024.024 0 0 1 .047 0zm0 0" stroke="none" fill-rule="nonzero" fill="#F5F5F5" fill-opacity="1"></path><path d="M3.004 6.734l.062.184h.192c.027.004.035.035.015.05l-.152.114.055.184c.008.023-.02.043-.04.027l-.156-.11-.156.11c-.02.016-.047-.004-.039-.027l.059-.184-.156-.113c-.02-.016-.012-.047.015-.051h.192l.062-.184a.024.024 0 0 1 .047 0zm0 0" stroke="none" fill-rule="nonzero" fill="#F5F5F5" fill-opacity="1"></path><path d="M3.75 3.39l.059.184.195.004c.023 0 .035.031.016.047l-.157.113.059.184c.008.023-.02.043-.04.027l-.16-.11-.156.11c-.02.016-.046-.004-.039-.027l.059-.184-.156-.113c-.02-.016-.008-.047.015-.047l.192-.004.062-.183c.008-.024.043-.024.051 0zm0 0" stroke="none" fill-rule="nonzero" fill="#F5F5F5" fill-opacity="1"></path><path d="M3.75 4.352l.059.18.195.003c.023 0 .035.031.016.047l-.157.113.059.184c.008.023-.02.043-.04.031l-.16-.113-.156.113c-.02.012-.046-.008-.039-.031l.059-.184-.156-.113c-.02-.016-.008-.047.015-.047l.192-.004.062-.18c.008-.027.043-.027.051 0zm0 0" stroke="none" fill-rule="nonzero" fill="#F5F5F5" fill-opacity="1"></path><path d="M3.75 5.309l.059.183h.195c.023 0 .035.031.016.047l-.157.113.059.188c.008.023-.02.043-.04.027l-.16-.113-.156.113c-.02.016-.046-.004-.039-.027l.059-.188-.156-.113c-.02-.016-.008-.047.015-.047h.192l.062-.183c.008-.024.043-.024.051 0zm0 0" stroke="none" fill-rule="nonzero" fill="#F5F5F5" fill-opacity="1"></path><path d="M3.75 6.266l.059.183h.195c.023 0 .035.031.016.047l-.157.117.059.184c.008.023-.02.043-.04.027l-.16-.113-.156.113c-.02.016-.046-.004-.039-.027l.059-.184-.156-.117c-.02-.016-.008-.047.015-.047h.192l.062-.183c.008-.024.043-.024.051 0zm0 0" stroke="none" fill-rule="nonzero" fill="#F5F5F5" fill-opacity="1"></path><path d="M3.75 7.223l.059.183h.195c.023.004.035.035.016.051l-.157.113.059.184c.008.023-.02.043-.04.027l-.16-.11-.156.11c-.02.016-.046-.004-.039-.027l.059-.184-.156-.113c-.02-.016-.008-.047.015-.05h.192l.062-.184c.008-.024.043-.024.051 0zm0 0" stroke="none" fill-rule="nonzero" fill="#F5F5F5" fill-opacity="1"></path><path d="M4.492 3.863l.063.18.191.004c.024 0 .035.031.016.047l-.157.113.06.184c.007.023-.02.043-.04.03l-.156-.112-.157.113c-.023.012-.05-.008-.042-.031l.058-.184-.156-.113c-.02-.016-.008-.047.016-.047l.195-.004.058-.18c.008-.027.043-.027.051 0zm0 0" stroke="none" fill-rule="nonzero" fill="#F5F5F5" fill-opacity="1"></path><path d="M4.492 4.82l.063.184h.191c.024 0 .035.031.016.047l-.157.113.06.188c.007.023-.02.043-.04.027l-.156-.113-.157.113c-.023.016-.05-.004-.042-.027l.058-.188-.156-.113c-.02-.016-.008-.047.016-.047h.195l.058-.184c.008-.023.043-.023.051 0zm0 0" stroke="none" fill-rule="nonzero" fill="#F5F5F5" fill-opacity="1"></path><path d="M4.492 5.777l.063.184h.191c.024 0 .035.031.016.047l-.157.117.06.184c.007.023-.02.043-.04.027l-.156-.113-.157.113c-.023.016-.05-.004-.042-.027l.058-.184-.156-.117c-.02-.016-.008-.047.016-.047h.195l.058-.184c.008-.023.043-.023.051 0zm0 0" stroke="none" fill-rule="nonzero" fill="#F5F5F5" fill-opacity="1"></path><path d="M4.492 6.734l.063.184h.191c.024.004.035.035.016.05l-.157.114.06.184c.007.023-.02.043-.04.027l-.156-.11-.157.11c-.023.016-.05-.004-.042-.027l.058-.184-.156-.113c-.02-.016-.008-.047.016-.051h.195l.058-.184c.008-.023.043-.023.051 0zm0 0" stroke="none" fill-rule="nonzero" fill="#F5F5F5" fill-opacity="1"></path><path d="M5.234 3.39l.063.184.191.004c.028 0 .035.031.016.047l-.152.113.058.184c.004.023-.023.043-.043.027l-.156-.11-.156.11c-.02.016-.047-.004-.04-.027l.06-.184-.157-.113c-.02-.016-.012-.047.016-.047l.191-.004.063-.183a.024.024 0 0 1 .046 0zm0 0" stroke="none" fill-rule="nonzero" fill="#F5F5F5" fill-opacity="1"></path><path d="M5.234 4.352l.063.18.191.003c.028 0 .035.031.016.047l-.152.113.058.184c.004.023-.023.043-.043.031l-.156-.113-.156.113c-.02.012-.047-.008-.04-.031l.06-.184-.157-.113c-.02-.016-.012-.047.016-.047l.191-.004.063-.18c.007-.027.039-.027.046 0zm0 0" stroke="none" fill-rule="nonzero" fill="#F5F5F5" fill-opacity="1"></path><path d="M5.234 5.309l.063.183h.191c.028 0 .035.031.016.047l-.152.113.058.188c.004.023-.023.043-.043.027l-.156-.113-.156.113c-.02.016-.047-.004-.04-.027l.06-.188-.157-.113c-.02-.016-.012-.047.016-.047h.191l.063-.183a.024.024 0 0 1 .046 0zm0 0" stroke="none" fill-rule="nonzero" fill="#F5F5F5" fill-opacity="1"></path><path d="M5.234 6.266l.063.183h.191c.028 0 .035.031.016.047l-.152.117.058.184c.004.023-.023.043-.043.027l-.156-.113-.156.113c-.02.016-.047-.004-.04-.027l.06-.184-.157-.117c-.02-.016-.012-.047.016-.047h.191l.063-.183a.024.024 0 0 1 .046 0zm0 0" stroke="none" fill-rule="nonzero" fill="#F5F5F5" fill-opacity="1"></path><path d="M5.234 7.223l.063.183h.191c.028.004.035.035.016.051l-.152.113.058.184c.004.023-.023.043-.043.027l-.156-.11-.156.11c-.02.016-.047-.004-.04-.027l.06-.184-.157-.113c-.02-.016-.012-.047.016-.05h.191l.063-.184a.024.024 0 0 1 .046 0zm0 0" stroke="none" fill-rule="nonzero" fill="#F5F5F5" fill-opacity="1"></path><path d="M5.98 3.863l.06.18.194.004c.024 0 .036.031.016.047l-.156.113.058.184c.008.023-.02.043-.039.03l-.16-.112-.156.113c-.02.012-.047-.008-.04-.031l.06-.184-.157-.113c-.02-.016-.008-.047.016-.047l.191-.004.063-.18c.008-.027.043-.027.05 0zm0 0" stroke="none" fill-rule="nonzero" fill="#F5F5F5" fill-opacity="1"></path><path d="M5.98 4.82l.06.184h.194c.024 0 .036.031.016.047l-.156.113.058.188c.008.023-.02.043-.039.027l-.16-.113-.156.113c-.02.016-.047-.004-.04-.027l.06-.188-.157-.113c-.02-.016-.008-.047.016-.047h.191l.063-.184c.008-.023.043-.023.05 0zm0 0" stroke="none" fill-rule="nonzero" fill="#F5F5F5" fill-opacity="1"></path><path d="M5.98 5.777l.06.184h.194c.024 0 .036.031.016.047l-.156.117.058.184c.008.023-.02.043-.039.027l-.16-.113-.156.113c-.02.016-.047-.004-.04-.027l.06-.184-.157-.117c-.02-.016-.008-.047.016-.047h.191l.063-.184c.008-.023.043-.023.05 0zm0 0" stroke="none" fill-rule="nonzero" fill="#F5F5F5" fill-opacity="1"></path><path d="M5.98 6.734l.06.184h.194c.024.004.036.035.016.05l-.156.114.058.184c.008.023-.02.043-.039.027l-.16-.11-.156.11c-.02.016-.047-.004-.04-.027l.06-.184-.157-.113c-.02-.016-.008-.047.016-.051h.191l.063-.184c.008-.023.043-.023.05 0zm0 0" stroke="none" fill-rule="nonzero" fill="#F5F5F5" fill-opacity="1"></path><path d="M6.723 3.39l.062.184.192.004c.027 0 .035.031.015.047l-.156.113.059.184c.007.023-.02.043-.04.027L6.7 3.84l-.156.11c-.023.016-.05-.004-.043-.027l.059-.184-.153-.113c-.023-.016-.011-.047.012-.047l.195-.004.059-.183c.008-.024.043-.024.05 0zm0 0" stroke="none" fill-rule="nonzero" fill="#F5F5F5" fill-opacity="1"></path><path d="M6.723 4.352l.062.18.192.003c.027 0 .035.031.015.047l-.156.113.059.184c.007.023-.02.043-.04.031L6.7 4.797l-.156.113c-.023.012-.05-.008-.043-.031l.059-.184-.153-.113c-.023-.016-.011-.047.012-.047l.195-.004.059-.18c.008-.027.043-.027.05 0zm0 0" stroke="none" fill-rule="nonzero" fill="#F5F5F5" fill-opacity="1"></path><path d="M6.723 5.309l.062.183h.192c.027 0 .035.031.015.047l-.156.113.059.188c.007.023-.02.043-.04.027L6.7 5.754l-.156.113c-.023.016-.05-.004-.043-.027l.059-.188-.153-.113c-.023-.016-.011-.047.012-.047h.195l.059-.183c.008-.024.043-.024.05 0zm0 0" stroke="none" fill-rule="nonzero" fill="#F5F5F5" fill-opacity="1"></path><path d="M6.723 6.266l.062.183h.192c.027 0 .035.031.015.047l-.156.117.059.184c.007.023-.02.043-.04.027L6.7 6.711l-.156.113c-.023.016-.05-.004-.043-.027l.059-.184-.153-.117c-.023-.016-.011-.047.012-.047h.195l.059-.183c.008-.024.043-.024.05 0zm0 0" stroke="none" fill-rule="nonzero" fill="#F5F5F5" fill-opacity="1"></path><path d="M6.723 7.223l.062.183h.192c.027.004.035.035.015.051l-.156.113.059.184c.007.023-.02.043-.04.027l-.156-.11-.156.11c-.023.016-.05-.004-.043-.027l.059-.184-.153-.113c-.023-.016-.011-.047.012-.05h.195l.059-.184c.008-.024.043-.024.05 0zm0 0" stroke="none" fill-rule="nonzero" fill="#F5F5F5" fill-opacity="1"></path></g></g></g><g transform="translate(48 0)"><g fill="none" class="nc-icon-wrapper"><path d="M27 .333C12.28.333.333 12.28.333 27 .333 41.72 12.28 53.667 27 53.667c14.72 0 26.667-11.947 26.667-26.667C53.667 12.28 41.72.333 27 .333zm0 8c4.427 0 8 3.574 8 8 0 4.427-3.573 8-8 8a7.99 7.99 0 0 1-8-8c0-4.426 3.573-8 8-8zM27 46.2c-6.667 0-12.56-3.413-16-8.587.08-5.306 10.667-8.213 16-8.213 5.307 0 15.92 2.907 16 8.213-3.44 5.174-9.333 8.587-16 8.587z" fill="#bfbfbf"></path></g></g><g transform="translate(102 0)"><g fill="none" class="nc-icon-wrapper"><path d="M22.24.373C10.17.373.373 10.17.373 22.24S10.17 44.107 22.24 44.107 44.107 34.31 44.107 22.24 34.31.373 22.24.373zm0 6.56c3.63 0 6.56 2.93 6.56 6.56 0 3.63-2.93 6.56-6.56 6.56-3.63 0-6.56-2.93-6.56-6.56 0-3.63 2.93-6.56 6.56-6.56zm0 31.051c-5.467 0-10.3-2.799-13.12-7.041.066-4.352 8.747-6.735 13.12-6.735 4.351 0 13.054 2.383 13.12 6.735-2.82 4.242-7.653 7.041-13.12 7.041z" fill="#bfbfbf"></path></g></g><g transform="translate(147 0)"><g fill="none" class="nc-icon-wrapper"><g filter="url(#filter0_d_1_250)"><circle cx="24" cy="20" r="20" fill="#F3F3F4"></circle><path d="M19.941 29.823l6.159-8.211a2 2 0 0 0 0-2.4L19.941 11" stroke="#383838" stroke-width="2"></path></g><defs><filter id="filter0_d_1_250" x="0" y="0" width="48" height="48" filterUnits="userSpaceOnUse" color-interpolation-filters="sRGB"><feFlood flood-opacity="0" result="BackgroundImageFix"></feFlood><feColorMatrix in="SourceAlpha" type="matrix" values="0 0 0 0 0 0 0 0 0 0 0 0 0 0 0 0 0 0 127 0" result="hardAlpha"></feColorMatrix><feOffset dy="4"></feOffset><feGaussianBlur stdDeviation="2"></feGaussianBlur><feColorMatrix type="matrix" values="0 0 0 0 0 0 0 0 0 0 0 0 0 0 0 0 0 0 0.25 0"></feColorMatrix><feBlend mode="normal" in2="BackgroundImageFix" result="effect1_dropShadow_1_250"></feBlend><feBlend mode="normal" in="SourceGraphic" in2="effect1_dropShadow_1_250" result="shape"></feBlend></filter></defs></g></g></svg>